<svg xmlns="http://www.w3.org/2000/svg" viewBox="0 0 1600 520" preserveAspectRatio="xMidYMax slice" width="1600" height="520"><rect x="-30" y="331" width="58" height="189" fill="#3f4047"/><rect x="23" y="329" width="41" height="191" fill="#42414a"/><rect x="60" y="336" width="36" height="184" fill="#3c3a3f"/><rect x="86" y="440" width="70" height="80" fill="#413e45"/><rect x="144" y="410" width="69" height="110" fill="#413846"/><rect x="210" y="441" width="33" height="79" fill="#3b3b47"/><rect x="241" y="367" width="59" height="153" fill="#3f4141"/><rect x="290" y="375" width="44" height="145" fill="#3f3848"/><rect x="331" y="379" width="59" height="141" fill="#3e403f"/><rect x="384" y="392" width="50" height="128" fill="#403c3e"/><rect x="431" y="423" width="66" height="97" fill="#3e3942"/><rect x="489" y="446" width="34" height="74" fill="#423841"/><rect x="518" y="330" width="33" height="190" fill="#3e4344"/><rect x="543" y="400" width="34" height="120" fill="#444242"/><rect x="570" y="371" width="35" height="149" fill="#3d3844"/><rect x="602" y="387" width="38" height="133" fill="#43393e"/><rect x="638" y="326" width="59" height="194" fill="#3a4246"/><rect x="692" y="320" width="58" height="200" fill="#3b434a"/><rect x="746" y="352" width="56" height="168" fill="#393e44"/><rect x="797" y="381" width="30" height="139" fill="#444142"/><rect x="825" y="403" width="43" height="117" fill="#3e4148"/><rect x="857" y="440" width="36" height="80" fill="#3a3b45"/><rect x="887" y="366" width="30" height="154" fill="#3c3e3f"/><rect x="914" y="397" width="35" height="123" fill="#414241"/><rect x="947" y="356" width="68" height="164" fill="#3d4145"/><rect x="1011" y="327" width="67" height="193" fill="#413a44"/><rect x="1074" y="411" width="70" height="109" fill="#3c3b47"/><rect x="1139" y="410" width="42" height="110" fill="#434246"/><rect x="1176" y="327" width="54" height="193" fill="#413944"/><rect x="1228" y="423" width="36" height="97" fill="#384042"/><rect x="1259" y="385" width="55" height="135" fill="#3e4145"/><rect x="1308" y="406" width="63" height="114" fill="#433940"/><rect x="1366" y="432" width="60" height="88" fill="#3c3b41"/><rect x="1424" y="382" width="34" height="138" fill="#3e3f41"/><rect x="1456" y="405" width="32" height="115" fill="#3c3d46"/><rect x="1477" y="427" width="38" height="93" fill="#3d3a45"/><rect x="1508" y="415" width="63" height="105" fill="#41383e"/><rect x="1562" y="371" width="52" height="149" fill="#383847"/><rect x="-20" y="335" width="79" height="185" fill="#554f5c"/><polygon points="-20,335 59,335 39,284 -0,287" fill="#554f5c"/><rect x="69" y="393" width="73" height="127" fill="#515653"/><polygon points="69,393 142,393 124,340 87,363" fill="#515653"/><rect x="143" y="280" width="63" height="240" fill="#4d5058"/><rect x="173" y="237" width="3" height="28" fill="#4d5058"/><rect x="209" y="329" width="66" height="191" fill="#4c5656"/><rect x="240" y="297" width="3" height="36" fill="#4c5656"/><rect x="284" y="287" width="79" height="233" fill="#4c4c50"/><rect x="363" y="345" width="53" height="175" fill="#4c4c54"/><rect x="377" y="306" width="24" height="39" fill="#4c4c54"/><rect x="426" y="354" width="53" height="166" fill="#554d56"/><rect x="451" y="303" width="3" height="54" fill="#554d56"/><rect x="481" y="333" width="49" height="187" fill="#4b4f54"/><rect x="539" y="248" width="40" height="272" fill="#545555"/><rect x="558" y="198" width="3" height="47" fill="#545555"/><rect x="586" y="320" width="84" height="200" fill="#4c5157"/><rect x="670" y="395" width="56" height="125" fill="#554f56"/><rect x="696" y="341" width="3" height="51" fill="#554f56"/><rect x="732" y="398" width="77" height="122" fill="#514a5b"/><rect x="769" y="358" width="3" height="35" fill="#514a5b"/><rect x="812" y="282" width="92" height="238" fill="#4f5255"/><rect x="908" y="282" width="89" height="238" fill="#4b535b"/><rect x="1002" y="325" width="95" height="195" fill="#4a5051"/><rect x="1048" y="265" width="3" height="67" fill="#4a5051"/><rect x="1102" y="313" width="49" height="207" fill="#4e5558"/><rect x="1125" y="265" width="3" height="47" fill="#4e5558"/><rect x="1153" y="380" width="91" height="140" fill="#544c5b"/><polygon points="1153,380 1244,380 1221,340 1176,350" fill="#544c5b"/><rect x="1244" y="247" width="45" height="273" fill="#525050"/><rect x="1265" y="181" width="3" height="50" fill="#525050"/><rect x="1293" y="234" width="69" height="286" fill="#504c50"/><rect x="1372" y="274" width="42" height="246" fill="#4f4d52"/><rect x="1423" y="239" width="48" height="281" fill="#565051"/><rect x="1446" y="188" width="3" height="37" fill="#565051"/><rect x="1471" y="293" width="94" height="227" fill="#4e4c57"/><rect x="1574" y="357" width="94" height="163" fill="#525157"/><polygon points="1574,357 1668,357 1644,322 1598,317" fill="#525157"/><rect x="-10" y="349" width="85" height="171" fill="#586162"/><rect x="9" y="327" width="48" height="22" fill="#586162"/><rect x="107" y="257" width="82" height="263" fill="#585b67"/><rect x="131" y="237" width="33" height="20" fill="#585b67"/><rect x="240" y="365" width="101" height="155" fill="#606269"/><rect x="259" y="341" width="64" height="24" fill="#606269"/><rect x="363" y="202" width="95" height="318" fill="#5a6161"/><rect x="501" y="176" width="120" height="344" fill="#655d67"/><rect x="560" y="128" width="3" height="64" fill="#655d67"/><rect x="646" y="325" width="108" height="195" fill="#635f67"/><rect x="784" y="166" width="71" height="354" fill="#5a6063"/><polygon points="784,166 855,166 837,125 802,135" fill="#5a6063"/><rect x="912" y="349" width="62" height="171" fill="#595e5e"/><polygon points="912,349 974,349 958,294 928,306" fill="#595e5e"/><rect x="1011" y="343" width="90" height="177" fill="#5d6662"/><rect x="1026" y="311" width="60" height="32" fill="#5d6662"/><rect x="1156" y="304" width="75" height="216" fill="#5a5967"/><rect x="1282" y="286" width="78" height="234" fill="#605a6c"/><rect x="1386" y="328" width="97" height="192" fill="#5f585e"/><polygon points="1386,328 1483,328 1459,291 1410,303" fill="#5f585e"/><rect x="1513" y="195" width="76" height="325" fill="#585b6a"/><rect x="600" y="80" width="64" height="440" fill="#7a7a86"/><rect x="606" y="58" width="52" height="22" fill="#7a7a86"/><rect x="630" y="2" width="3" height="56" fill="#7a7a86"/><rect x="1010" y="190" width="46" height="330" fill="#7a7a86"/><polygon points="1033.0,20 1024.0,190 1042.0,190" fill="#7a7a86"/><line x1="1033.0" y1="20" x2="1033.0" y2="-35" stroke="#7a7a86" stroke-width="3"/><rect x="330" y="220" width="90" height="300" fill="#6c6c78"/><rect x="342" y="194" width="66" height="26" fill="#6c6c78"/><rect x="356" y="174" width="38" height="20" fill="#6c6c78"/><g class="windows"><rect x="608" y="94" width="3" height="4" fill="#b9924a" opacity="0.67"/><rect x="626" y="94" width="3" height="4" fill="#b9924a" opacity="0.81"/><rect x="608" y="107" width="3" height="4" fill="#b9924a" opacity="0.54"/><rect x="635" y="107" width="3" height="4" fill="#b9924a" opacity="0.72"/><rect x="617" y="133" width="3" height="4" fill="#c2a267" opacity="0.56"/><rect x="608" y="146" width="3" height="4" fill="#c2a267" opacity="0.64"/><rect x="626" y="146" width="3" height="4" fill="#b9924a" opacity="0.89"/><rect x="635" y="159" width="3" height="4" fill="#c2a267" opacity="0.66"/><rect x="626" y="185" width="3" height="4" fill="#e8cf96" opacity="0.61"/><rect x="617" y="198" width="3" height="4" fill="#c2a267" opacity="0.68"/><rect x="635" y="198" width="3" height="4" fill="#d4b87a" opacity="0.66"/><rect x="644" y="198" width="3" height="4" fill="#e8cf96" opacity="0.57"/><rect x="626" y="211" width="3" height="4" fill="#b9924a" opacity="0.83"/><rect x="635" y="211" width="3" height="4" fill="#e8cf96" opacity="0.63"/><rect x="653" y="211" width="3" height="4" fill="#d4b87a" opacity="0.90"/><rect x="617" y="224" width="3" height="4" fill="#c2a267" opacity="0.89"/><rect x="653" y="237" width="3" height="4" fill="#c2a267" opacity="0.86"/><rect x="653" y="250" width="3" height="4" fill="#c2a267" opacity="0.81"/><rect x="617" y="289" width="3" height="4" fill="#d4b87a" opacity="0.66"/><rect x="626" y="289" width="3" height="4" fill="#e8cf96" opacity="0.89"/><rect x="635" y="302" width="3" height="4" fill="#c2a267" opacity="0.77"/><rect x="635" y="315" width="3" height="4" fill="#d4b87a" opacity="0.61"/><rect x="608" y="328" width="3" height="4" fill="#e8cf96" opacity="0.79"/><rect x="644" y="328" width="3" height="4" fill="#d4b87a" opacity="0.85"/><rect x="608" y="341" width="3" height="4" fill="#e8cf96" opacity="0.48"/><rect x="653" y="341" width="3" height="4" fill="#c2a267" opacity="0.73"/><rect x="653" y="354" width="3" height="4" fill="#c2a267" opacity="0.72"/><rect x="653" y="367" width="3" height="4" fill="#c2a267" opacity="0.47"/><rect x="617" y="380" width="3" height="4" fill="#d4b87a" opacity="0.60"/><rect x="626" y="393" width="3" height="4" fill="#d4b87a" opacity="0.70"/><rect x="644" y="393" width="3" height="4" fill="#b9924a" opacity="0.89"/><rect x="608" y="406" width="3" height="4" fill="#c2a267" opacity="0.46"/><rect x="635" y="406" width="3" height="4" fill="#c2a267" opacity="0.88"/><rect x="644" y="406" width="3" height="4" fill="#b9924a" opacity="0.61"/><rect x="644" y="432" width="3" height="4" fill="#d4b87a" opacity="0.64"/><rect x="626" y="445" width="3" height="4" fill="#d4b87a" opacity="0.85"/><rect x="644" y="445" width="3" height="4" fill="#e8cf96" opacity="0.59"/><rect x="653" y="445" width="3" height="4" fill="#c2a267" opacity="0.80"/><rect x="644" y="458" width="3" height="4" fill="#b9924a" opacity="0.87"/><rect x="653" y="458" width="3" height="4" fill="#d4b87a" opacity="0.49"/><rect x="653" y="471" width="3" height="4" fill="#b9924a" opacity="0.59"/><rect x="608" y="484" width="3" height="4" fill="#b9924a" opacity="0.69"/><rect x="644" y="497" width="3" height="4" fill="#b9924a" opacity="0.58"/><rect x="1018" y="217" width="3" height="4" fill="#e8cf96" opacity="0.57"/><rect x="1018" y="230" width="3" height="4" fill="#d4b87a" opacity="0.58"/><rect x="1036" y="230" width="3" height="4" fill="#b9924a" opacity="0.68"/><rect x="1036" y="243" width="3" height="4" fill="#c2a267" opacity="0.86"/><rect x="1018" y="256" width="3" height="4" fill="#d4b87a" opacity="0.51"/><rect x="1045" y="256" width="3" height="4" fill="#d4b87a" opacity="0.73"/><rect x="1027" y="295" width="3" height="4" fill="#c2a267" opacity="0.59"/><rect x="1045" y="308" width="3" height="4" fill="#b9924a" opacity="0.73"/><rect x="1045" y="321" width="3" height="4" fill="#b9924a" opacity="0.51"/><rect x="1018" y="334" width="3" height="4" fill="#d4b87a" opacity="0.81"/><rect x="1036" y="347" width="3" height="4" fill="#d4b87a" opacity="0.71"/><rect x="1018" y="360" width="3" height="4" fill="#c2a267" opacity="0.66"/><rect x="1036" y="360" width="3" height="4" fill="#b9924a" opacity="0.69"/><rect x="1018" y="373" width="3" height="4" fill="#d4b87a" opacity="0.65"/><rect x="1036" y="373" width="3" height="4" fill="#d4b87a" opacity="0.53"/><rect x="1027" y="386" width="3" height="4" fill="#e8cf96" opacity="0.85"/><rect x="1045" y="412" width="3" height="4" fill="#e8cf96" opacity="0.89"/><rect x="1045" y="425" width="3" height="4" fill="#b9924a" opacity="0.87"/><rect x="1045" y="438" width="3" height="4" fill="#c2a267" opacity="0.76"/><rect x="1018" y="451" width="3" height="4" fill="#b9924a" opacity="0.88"/><rect x="1018" y="464" width="3" height="4" fill="#b9924a" opacity="0.66"/><rect x="1036" y="464" width="3" height="4" fill="#b9924a" opacity="0.77"/><rect x="1018" y="490" width="3" height="4" fill="#e8cf96" opacity="0.71"/><rect x="1045" y="503" width="3" height="4" fill="#e8cf96" opacity="0.78"/><rect x="337.5" y="234" width="3" height="4" fill="#c2a267" opacity="0.49"/><rect x="355.5" y="234" width="3" height="4" fill="#d4b87a" opacity="0.53"/><rect x="382.5" y="234" width="3" height="4" fill="#d4b87a" opacity="0.69"/><rect x="391.5" y="234" width="3" height="4" fill="#d4b87a" opacity="0.61"/><rect x="337.5" y="247" width="3" height="4" fill="#c2a267" opacity="0.89"/><rect x="346.5" y="247" width="3" height="4" fill="#b9924a" opacity="0.84"/><rect x="391.5" y="247" width="3" height="4" fill="#b9924a" opacity="0.78"/><rect x="337.5" y="260" width="3" height="4" fill="#c2a267" opacity="0.74"/><rect x="355.5" y="260" width="3" height="4" fill="#c2a267" opacity="0.58"/><rect x="364.5" y="260" width="3" height="4" fill="#b9924a" opacity="0.89"/><rect x="355.5" y="273" width="3" height="4" fill="#e8cf96" opacity="0.68"/><rect x="373.5" y="273" width="3" height="4" fill="#c2a267" opacity="0.62"/><rect x="382.5" y="273" width="3" height="4" fill="#c2a267" opacity="0.85"/><rect x="400.5" y="273" width="3" height="4" fill="#d4b87a" opacity="0.54"/><rect x="355.5" y="286" width="3" height="4" fill="#b9924a" opacity="0.48"/><rect x="364.5" y="286" width="3" height="4" fill="#b9924a" opacity="0.51"/><rect x="373.5" y="299" width="3" height="4" fill="#e8cf96" opacity="0.49"/><rect x="391.5" y="299" width="3" height="4" fill="#e8cf96" opacity="0.62"/><rect x="355.5" y="312" width="3" height="4" fill="#c2a267" opacity="0.53"/><rect x="373.5" y="312" width="3" height="4" fill="#e8cf96" opacity="0.65"/><rect x="346.5" y="325" width="3" height="4" fill="#b9924a" opacity="0.84"/><rect x="364.5" y="325" width="3" height="4" fill="#e8cf96" opacity="0.54"/><rect x="391.5" y="325" width="3" height="4" fill="#d4b87a" opacity="0.83"/><rect x="409.5" y="325" width="3" height="4" fill="#c2a267" opacity="0.70"/><rect x="364.5" y="338" width="3" height="4" fill="#b9924a" opacity="0.86"/><rect x="382.5" y="338" width="3" height="4" fill="#d4b87a" opacity="0.65"/><rect x="391.5" y="338" width="3" height="4" fill="#b9924a" opacity="0.54"/><rect x="400.5" y="338" width="3" height="4" fill="#c2a267" opacity="0.58"/><rect x="382.5" y="351" width="3" height="4" fill="#c2a267" opacity="0.60"/><rect x="391.5" y="351" width="3" height="4" fill="#d4b87a" opacity="0.78"/><rect x="409.5" y="351" width="3" height="4" fill="#c2a267" opacity="0.90"/><rect x="400.5" y="364" width="3" height="4" fill="#b9924a" opacity="0.85"/><rect x="337.5" y="377" width="3" height="4" fill="#e8cf96" opacity="0.82"/><rect x="355.5" y="377" width="3" height="4" fill="#d4b87a" opacity="0.63"/><rect x="373.5" y="377" width="3" height="4" fill="#b9924a" opacity="0.67"/><rect x="391.5" y="377" width="3" height="4" fill="#c2a267" opacity="0.55"/><rect x="391.5" y="390" width="3" height="4" fill="#e8cf96" opacity="0.70"/><rect x="400.5" y="390" width="3" height="4" fill="#e8cf96" opacity="0.60"/><rect x="364.5" y="403" width="3" height="4" fill="#c2a267" opacity="0.54"/><rect x="373.5" y="403" width="3" height="4" fill="#d4b87a" opacity="0.54"/><rect x="391.5" y="403" width="3" height="4" fill="#d4b87a" opacity="0.64"/><rect x="400.5" y="416" width="3" height="4" fill="#d4b87a" opacity="0.50"/><rect x="337.5" y="429" width="3" height="4" fill="#d4b87a" opacity="0.59"/><rect x="346.5" y="429" width="3" height="4" fill="#d4b87a" opacity="0.67"/><rect x="409.5" y="429" width="3" height="4" fill="#c2a267" opacity="0.64"/><rect x="337.5" y="442" width="3" height="4" fill="#b9924a" opacity="0.45"/><rect x="364.5" y="442" width="3" height="4" fill="#c2a267" opacity="0.59"/><rect x="373.5" y="442" width="3" height="4" fill="#e8cf96" opacity="0.46"/><rect x="391.5" y="442" width="3" height="4" fill="#c2a267" opacity="0.66"/><rect x="355.5" y="455" width="3" height="4" fill="#c2a267" opacity="0.62"/><rect x="391.5" y="455" width="3" height="4" fill="#c2a267" opacity="0.57"/><rect x="337.5" y="468" width="3" height="4" fill="#d4b87a" opacity="0.87"/><rect x="337.5" y="481" width="3" height="4" fill="#d4b87a" opacity="0.55"/><rect x="364.5" y="481" width="3" height="4" fill="#c2a267" opacity="0.74"/><rect x="391.5" y="481" width="3" height="4" fill="#d4b87a" opacity="0.85"/><rect x="355.5" y="494" width="3" height="4" fill="#d4b87a" opacity="0.45"/><rect x="391.5" y="494" width="3" height="4" fill="#b9924a" opacity="0.68"/><rect x="510" y="190" width="3" height="4" fill="#e8cf96" opacity="0.87"/><rect x="537" y="190" width="3" height="4" fill="#c2a267" opacity="0.53"/><rect x="555" y="190" width="3" height="4" fill="#d4b87a" opacity="0.89"/><rect x="591" y="190" width="3" height="4" fill="#d4b87a" opacity="0.82"/><rect x="573" y="203" width="3" height="4" fill="#c2a267" opacity="0.62"/><rect x="582" y="203" width="3" height="4" fill="#b9924a" opacity="0.54"/><rect x="609" y="203" width="3" height="4" fill="#b9924a" opacity="0.53"/><rect x="519" y="216" width="3" height="4" fill="#c2a267" opacity="0.80"/><rect x="582" y="216" width="3" height="4" fill="#e8cf96" opacity="0.89"/><rect x="591" y="216" width="3" height="4" fill="#d4b87a" opacity="0.72"/><rect x="609" y="216" width="3" height="4" fill="#b9924a" opacity="0.63"/><rect x="519" y="229" width="3" height="4" fill="#d4b87a" opacity="0.55"/><rect x="528" y="229" width="3" height="4" fill="#c2a267" opacity="0.57"/><rect x="582" y="229" width="3" height="4" fill="#e8cf96" opacity="0.89"/><rect x="591" y="229" width="3" height="4" fill="#c2a267" opacity="0.81"/><rect x="510" y="242" width="3" height="4" fill="#e8cf96" opacity="0.67"/><rect x="528" y="242" width="3" height="4" fill="#b9924a" opacity="0.85"/><rect x="555" y="242" width="3" height="4" fill="#c2a267" opacity="0.63"/><rect x="600" y="242" width="3" height="4" fill="#c2a267" opacity="0.70"/><rect x="519" y="255" width="3" height="4" fill="#b9924a" opacity="0.71"/><rect x="546" y="255" width="3" height="4" fill="#e8cf96" opacity="0.48"/><rect x="582" y="255" width="3" height="4" fill="#e8cf96" opacity="0.65"/><rect x="591" y="255" width="3" height="4" fill="#d4b87a" opacity="0.83"/><rect x="609" y="255" width="3" height="4" fill="#d4b87a" opacity="0.46"/><rect x="546" y="268" width="3" height="4" fill="#e8cf96" opacity="0.74"/><rect x="600" y="268" width="3" height="4" fill="#e8cf96" opacity="0.88"/><rect x="510" y="281" width="3" height="4" fill="#c2a267" opacity="0.57"/><rect x="519" y="281" width="3" height="4" fill="#b9924a" opacity="0.89"/><rect x="528" y="281" width="3" height="4" fill="#c2a267" opacity="0.48"/><rect x="555" y="294" width="3" height="4" fill="#e8cf96" opacity="0.61"/><rect x="591" y="294" width="3" height="4" fill="#c2a267" opacity="0.72"/><rect x="546" y="307" width="3" height="4" fill="#c2a267" opacity="0.80"/><rect x="555" y="307" width="3" height="4" fill="#b9924a" opacity="0.53"/><rect x="591" y="307" width="3" height="4" fill="#e8cf96" opacity="0.85"/><rect x="600" y="307" width="3" height="4" fill="#c2a267" opacity="0.74"/><rect x="537" y="320" width="3" height="4" fill="#c2a267" opacity="0.86"/><rect x="546" y="320" width="3" height="4" fill="#d4b87a" opacity="0.61"/><rect x="600" y="320" width="3" height="4" fill="#b9924a" opacity="0.71"/><rect x="600" y="333" width="3" height="4" fill="#b9924a" opacity="0.75"/><rect x="537" y="346" width="3" height="4" fill="#c2a267" opacity="0.63"/><rect x="555" y="346" width="3" height="4" fill="#d4b87a" opacity="0.59"/><rect x="609" y="346" width="3" height="4" fill="#e8cf96" opacity="0.86"/><rect x="519" y="359" width="3" height="4" fill="#e8cf96" opacity="0.80"/><rect x="528" y="359" width="3" height="4" fill="#b9924a" opacity="0.49"/><rect x="546" y="359" width="3" height="4" fill="#e8cf96" opacity="0.83"/><rect x="573" y="359" width="3" height="4" fill="#c2a267" opacity="0.65"/><rect x="582" y="359" width="3" height="4" fill="#d4b87a" opacity="0.45"/><rect x="510" y="372" width="3" height="4" fill="#e8cf96" opacity="0.80"/><rect x="546" y="372" width="3" height="4" fill="#c2a267" opacity="0.81"/><rect x="564" y="372" width="3" height="4" fill="#c2a267" opacity="0.49"/><rect x="546" y="385" width="3" height="4" fill="#b9924a" opacity="0.66"/><rect x="582" y="385" width="3" height="4" fill="#b9924a" opacity="0.89"/><rect x="609" y="385" width="3" height="4" fill="#e8cf96" opacity="0.61"/><rect x="546" y="398" width="3" height="4" fill="#c2a267" opacity="0.85"/><rect x="573" y="398" width="3" height="4" fill="#e8cf96" opacity="0.61"/><rect x="537" y="411" width="3" height="4" fill="#c2a267" opacity="0.74"/><rect x="564" y="411" width="3" height="4" fill="#b9924a" opacity="0.87"/><rect x="600" y="411" width="3" height="4" fill="#c2a267" opacity="0.83"/><rect x="510" y="424" width="3" height="4" fill="#e8cf96" opacity="0.66"/><rect x="528" y="424" width="3" height="4" fill="#e8cf96" opacity="0.58"/><rect x="573" y="424" width="3" height="4" fill="#e8cf96" opacity="0.73"/><rect x="600" y="424" width="3" height="4" fill="#b9924a" opacity="0.87"/><rect x="609" y="424" width="3" height="4" fill="#c2a267" opacity="0.78"/><rect x="528" y="437" width="3" height="4" fill="#d4b87a" opacity="0.71"/><rect x="537" y="437" width="3" height="4" fill="#c2a267" opacity="0.87"/><rect x="609" y="437" width="3" height="4" fill="#b9924a" opacity="0.80"/><rect x="510" y="450" width="3" height="4" fill="#b9924a" opacity="0.52"/><rect x="519" y="450" width="3" height="4" fill="#c2a267" opacity="0.59"/><rect x="528" y="450" width="3" height="4" fill="#e8cf96" opacity="0.82"/><rect x="537" y="450" width="3" height="4" fill="#c2a267" opacity="0.70"/><rect x="564" y="450" width="3" height="4" fill="#c2a267" opacity="0.61"/><rect x="510" y="463" width="3" height="4" fill="#e8cf96" opacity="0.87"/><rect x="573" y="463" width="3" height="4" fill="#d4b87a" opacity="0.52"/><rect x="591" y="463" width="3" height="4" fill="#c2a267" opacity="0.67"/><rect x="546" y="476" width="3" height="4" fill="#b9924a" opacity="0.72"/><rect x="564" y="476" width="3" height="4" fill="#c2a267" opacity="0.50"/><rect x="591" y="476" width="3" height="4" fill="#e8cf96" opacity="0.48"/><rect x="528" y="489" width="3" height="4" fill="#c2a267" opacity="0.80"/><rect x="546" y="489" width="3" height="4" fill="#b9924a" opacity="0.69"/><rect x="582" y="489" width="3" height="4" fill="#c2a267" opacity="0.89"/><rect x="546" y="502" width="3" height="4" fill="#e8cf96" opacity="0.77"/><rect x="582" y="502" width="3" height="4" fill="#c2a267" opacity="0.88"/><rect x="829.5" y="296" width="3" height="4" fill="#c2a267" opacity="0.73"/><rect x="829.5" y="309" width="3" height="4" fill="#c2a267" opacity="0.85"/><rect x="838.5" y="309" width="3" height="4" fill="#b9924a" opacity="0.58"/><rect x="856.5" y="309" width="3" height="4" fill="#e8cf96" opacity="0.51"/><rect x="865.5" y="309" width="3" height="4" fill="#d4b87a" opacity="0.55"/><rect x="874.5" y="309" width="3" height="4" fill="#c2a267" opacity="0.89"/><rect x="820.5" y="322" width="3" height="4" fill="#b9924a" opacity="0.68"/><rect x="856.5" y="322" width="3" height="4" fill="#d4b87a" opacity="0.57"/><rect x="865.5" y="322" width="3" height="4" fill="#d4b87a" opacity="0.66"/><rect x="892.5" y="322" width="3" height="4" fill="#d4b87a" opacity="0.46"/><rect x="865.5" y="335" width="3" height="4" fill="#e8cf96" opacity="0.66"/><rect x="874.5" y="335" width="3" height="4" fill="#d4b87a" opacity="0.66"/><rect x="892.5" y="335" width="3" height="4" fill="#b9924a" opacity="0.87"/><rect x="838.5" y="348" width="3" height="4" fill="#d4b87a" opacity="0.54"/><rect x="847.5" y="348" width="3" height="4" fill="#e8cf96" opacity="0.86"/><rect x="856.5" y="348" width="3" height="4" fill="#c2a267" opacity="0.69"/><rect x="865.5" y="348" width="3" height="4" fill="#b9924a" opacity="0.58"/><rect x="892.5" y="348" width="3" height="4" fill="#d4b87a" opacity="0.57"/><rect x="820.5" y="361" width="3" height="4" fill="#d4b87a" opacity="0.88"/><rect x="838.5" y="361" width="3" height="4" fill="#c2a267" opacity="0.49"/><rect x="874.5" y="361" width="3" height="4" fill="#d4b87a" opacity="0.89"/><rect x="883.5" y="361" width="3" height="4" fill="#e8cf96" opacity="0.87"/><rect x="892.5" y="361" width="3" height="4" fill="#c2a267" opacity="0.56"/><rect x="874.5" y="374" width="3" height="4" fill="#b9924a" opacity="0.53"/><rect x="892.5" y="374" width="3" height="4" fill="#d4b87a" opacity="0.88"/><rect x="856.5" y="387" width="3" height="4" fill="#c2a267" opacity="0.56"/><rect x="892.5" y="387" width="3" height="4" fill="#d4b87a" opacity="0.90"/><rect x="847.5" y="400" width="3" height="4" fill="#b9924a" opacity="0.54"/><rect x="829.5" y="413" width="3" height="4" fill="#c2a267" opacity="0.56"/><rect x="838.5" y="413" width="3" height="4" fill="#b9924a" opacity="0.54"/><rect x="883.5" y="413" width="3" height="4" fill="#d4b87a" opacity="0.66"/><rect x="856.5" y="426" width="3" height="4" fill="#b9924a" opacity="0.54"/><rect x="856.5" y="439" width="3" height="4" fill="#b9924a" opacity="0.64"/><rect x="865.5" y="439" width="3" height="4" fill="#d4b87a" opacity="0.56"/><rect x="829.5" y="452" width="3" height="4" fill="#b9924a" opacity="0.65"/><rect x="856.5" y="452" width="3" height="4" fill="#d4b87a" opacity="0.65"/><rect x="820.5" y="465" width="3" height="4" fill="#e8cf96" opacity="0.53"/><rect x="865.5" y="465" width="3" height="4" fill="#d4b87a" opacity="0.57"/><rect x="874.5" y="465" width="3" height="4" fill="#e8cf96" opacity="0.56"/><rect x="883.5" y="465" width="3" height="4" fill="#c2a267" opacity="0.53"/><rect x="820.5" y="478" width="3" height="4" fill="#b9924a" opacity="0.81"/><rect x="829.5" y="491" width="3" height="4" fill="#e8cf96" opacity="0.48"/><rect x="856.5" y="491" width="3" height="4" fill="#c2a267" opacity="0.48"/><rect x="856.5" y="504" width="3" height="4" fill="#e8cf96" opacity="0.69"/><rect x="915" y="296" width="3" height="4" fill="#e8cf96" opacity="0.51"/><rect x="924" y="296" width="3" height="4" fill="#e8cf96" opacity="0.75"/><rect x="933" y="296" width="3" height="4" fill="#c2a267" opacity="0.76"/><rect x="951" y="296" width="3" height="4" fill="#c2a267" opacity="0.79"/><rect x="969" y="296" width="3" height="4" fill="#b9924a" opacity="0.88"/><rect x="924" y="322" width="3" height="4" fill="#c2a267" opacity="0.65"/><rect x="951" y="322" width="3" height="4" fill="#e8cf96" opacity="0.67"/><rect x="960" y="322" width="3" height="4" fill="#c2a267" opacity="0.75"/><rect x="960" y="335" width="3" height="4" fill="#c2a267" opacity="0.79"/><rect x="987" y="335" width="3" height="4" fill="#b9924a" opacity="0.79"/><rect x="924" y="348" width="3" height="4" fill="#c2a267" opacity="0.69"/><rect x="960" y="348" width="3" height="4" fill="#c2a267" opacity="0.68"/><rect x="933" y="361" width="3" height="4" fill="#d4b87a" opacity="0.82"/><rect x="978" y="361" width="3" height="4" fill="#b9924a" opacity="0.80"/><rect x="915" y="374" width="3" height="4" fill="#e8cf96" opacity="0.77"/><rect x="933" y="374" width="3" height="4" fill="#e8cf96" opacity="0.51"/><rect x="951" y="374" width="3" height="4" fill="#e8cf96" opacity="0.85"/><rect x="969" y="374" width="3" height="4" fill="#e8cf96" opacity="0.67"/><rect x="924" y="387" width="3" height="4" fill="#b9924a" opacity="0.86"/><rect x="942" y="387" width="3" height="4" fill="#d4b87a" opacity="0.82"/><rect x="960" y="387" width="3" height="4" fill="#d4b87a" opacity="0.56"/><rect x="969" y="387" width="3" height="4" fill="#c2a267" opacity="0.72"/><rect x="987" y="387" width="3" height="4" fill="#b9924a" opacity="0.81"/><rect x="915" y="400" width="3" height="4" fill="#e8cf96" opacity="0.61"/><rect x="933" y="400" width="3" height="4" fill="#e8cf96" opacity="0.74"/><rect x="978" y="400" width="3" height="4" fill="#d4b87a" opacity="0.69"/><rect x="924" y="413" width="3" height="4" fill="#e8cf96" opacity="0.57"/><rect x="951" y="413" width="3" height="4" fill="#d4b87a" opacity="0.67"/><rect x="960" y="426" width="3" height="4" fill="#d4b87a" opacity="0.75"/><rect x="969" y="426" width="3" height="4" fill="#b9924a" opacity="0.85"/><rect x="933" y="439" width="3" height="4" fill="#e8cf96" opacity="0.67"/><rect x="942" y="439" width="3" height="4" fill="#b9924a" opacity="0.70"/><rect x="969" y="452" width="3" height="4" fill="#c2a267" opacity="0.49"/><rect x="978" y="452" width="3" height="4" fill="#b9924a" opacity="0.62"/><rect x="915" y="478" width="3" height="4" fill="#e8cf96" opacity="0.72"/><rect x="924" y="478" width="3" height="4" fill="#e8cf96" opacity="0.52"/><rect x="942" y="478" width="3" height="4" fill="#e8cf96" opacity="0.82"/><rect x="951" y="478" width="3" height="4" fill="#e8cf96" opacity="0.77"/><rect x="969" y="478" width="3" height="4" fill="#c2a267" opacity="0.86"/><rect x="951" y="491" width="3" height="4" fill="#d4b87a" opacity="0.68"/><rect x="960" y="491" width="3" height="4" fill="#e8cf96" opacity="0.83"/><rect x="969" y="491" width="3" height="4" fill="#b9924a" opacity="0.55"/><rect x="978" y="491" width="3" height="4" fill="#b9924a" opacity="0.59"/><rect x="987" y="491" width="3" height="4" fill="#d4b87a" opacity="0.50"/><rect x="924" y="504" width="3" height="4" fill="#d4b87a" opacity="0.74"/><rect x="978" y="504" width="3" height="4" fill="#e8cf96" opacity="0.84"/><rect x="1278.5" y="261" width="3" height="4" fill="#d4b87a" opacity="0.62"/><rect x="1260.5" y="274" width="3" height="4" fill="#c2a267" opacity="0.52"/><rect x="1278.5" y="274" width="3" height="4" fill="#b9924a" opacity="0.63"/><rect x="1278.5" y="300" width="3" height="4" fill="#d4b87a" opacity="0.78"/><rect x="1251.5" y="313" width="3" height="4" fill="#e8cf96" opacity="0.79"/><rect x="1251.5" y="326" width="3" height="4" fill="#d4b87a" opacity="0.74"/><rect x="1269.5" y="339" width="3" height="4" fill="#b9924a" opacity="0.46"/><rect x="1278.5" y="352" width="3" height="4" fill="#c2a267" opacity="0.67"/><rect x="1251.5" y="365" width="3" height="4" fill="#e8cf96" opacity="0.71"/><rect x="1260.5" y="365" width="3" height="4" fill="#b9924a" opacity="0.68"/><rect x="1251.5" y="404" width="3" height="4" fill="#b9924a" opacity="0.48"/><rect x="1260.5" y="404" width="3" height="4" fill="#b9924a" opacity="0.76"/><rect x="1269.5" y="404" width="3" height="4" fill="#e8cf96" opacity="0.76"/><rect x="1278.5" y="404" width="3" height="4" fill="#b9924a" opacity="0.52"/><rect x="1260.5" y="417" width="3" height="4" fill="#d4b87a" opacity="0.58"/><rect x="1251.5" y="443" width="3" height="4" fill="#d4b87a" opacity="0.63"/><rect x="1278.5" y="456" width="3" height="4" fill="#d4b87a" opacity="0.76"/><rect x="1251.5" y="469" width="3" height="4" fill="#e8cf96" opacity="0.82"/><rect x="1269.5" y="469" width="3" height="4" fill="#c2a267" opacity="0.54"/><rect x="1260.5" y="482" width="3" height="4" fill="#c2a267" opacity="0.72"/><rect x="1260.5" y="495" width="3" height="4" fill="#d4b87a" opacity="0.62"/><rect x="1303.5" y="248" width="3" height="4" fill="#b9924a" opacity="0.51"/><rect x="1312.5" y="248" width="3" height="4" fill="#e8cf96" opacity="0.56"/><rect x="1330.5" y="248" width="3" height="4" fill="#b9924a" opacity="0.63"/><rect x="1303.5" y="261" width="3" height="4" fill="#e8cf96" opacity="0.83"/><rect x="1339.5" y="261" width="3" height="4" fill="#c2a267" opacity="0.67"/><rect x="1321.5" y="274" width="3" height="4" fill="#b9924a" opacity="0.85"/><rect x="1303.5" y="287" width="3" height="4" fill="#b9924a" opacity="0.83"/><rect x="1339.5" y="287" width="3" height="4" fill="#b9924a" opacity="0.68"/><rect x="1348.5" y="287" width="3" height="4" fill="#c2a267" opacity="0.64"/><rect x="1312.5" y="300" width="3" height="4" fill="#c2a267" opacity="0.80"/><rect x="1348.5" y="300" width="3" height="4" fill="#e8cf96" opacity="0.77"/><rect x="1339.5" y="313" width="3" height="4" fill="#d4b87a" opacity="0.52"/><rect x="1348.5" y="339" width="3" height="4" fill="#d4b87a" opacity="0.67"/><rect x="1312.5" y="352" width="3" height="4" fill="#c2a267" opacity="0.74"/><rect x="1339.5" y="352" width="3" height="4" fill="#c2a267" opacity="0.83"/><rect x="1303.5" y="365" width="3" height="4" fill="#e8cf96" opacity="0.75"/><rect x="1312.5" y="365" width="3" height="4" fill="#e8cf96" opacity="0.80"/><rect x="1330.5" y="365" width="3" height="4" fill="#b9924a" opacity="0.73"/><rect x="1339.5" y="365" width="3" height="4" fill="#d4b87a" opacity="0.78"/><rect x="1303.5" y="378" width="3" height="4" fill="#d4b87a" opacity="0.50"/><rect x="1312.5" y="391" width="3" height="4" fill="#c2a267" opacity="0.86"/><rect x="1312.5" y="404" width="3" height="4" fill="#b9924a" opacity="0.81"/><rect x="1339.5" y="404" width="3" height="4" fill="#c2a267" opacity="0.59"/><rect x="1303.5" y="417" width="3" height="4" fill="#e8cf96" opacity="0.53"/><rect x="1330.5" y="417" width="3" height="4" fill="#b9924a" opacity="0.74"/><rect x="1321.5" y="430" width="3" height="4" fill="#c2a267" opacity="0.72"/><rect x="1303.5" y="443" width="3" height="4" fill="#e8cf96" opacity="0.78"/><rect x="1339.5" y="443" width="3" height="4" fill="#d4b87a" opacity="0.80"/><rect x="1312.5" y="456" width="3" height="4" fill="#c2a267" opacity="0.75"/><rect x="1330.5" y="456" width="3" height="4" fill="#b9924a" opacity="0.86"/><rect x="1348.5" y="456" width="3" height="4" fill="#c2a267" opacity="0.84"/><rect x="1303.5" y="469" width="3" height="4" fill="#b9924a" opacity="0.68"/><rect x="1321.5" y="469" width="3" height="4" fill="#c2a267" opacity="0.56"/><rect x="1339.5" y="469" width="3" height="4" fill="#e8cf96" opacity="0.54"/><rect x="1339.5" y="495" width="3" height="4" fill="#d4b87a" opacity="0.74"/><rect x="1450" y="253" width="3" height="4" fill="#e8cf96" opacity="0.68"/><rect x="1432" y="266" width="3" height="4" fill="#c2a267" opacity="0.52"/><rect x="1450" y="292" width="3" height="4" fill="#e8cf96" opacity="0.83"/><rect x="1432" y="305" width="3" height="4" fill="#c2a267" opacity="0.67"/><rect x="1450" y="344" width="3" height="4" fill="#d4b87a" opacity="0.83"/><rect x="1459" y="344" width="3" height="4" fill="#e8cf96" opacity="0.69"/><rect x="1441" y="357" width="3" height="4" fill="#e8cf96" opacity="0.56"/><rect x="1441" y="383" width="3" height="4" fill="#e8cf96" opacity="0.88"/><rect x="1441" y="396" width="3" height="4" fill="#c2a267" opacity="0.67"/><rect x="1450" y="396" width="3" height="4" fill="#c2a267" opacity="0.52"/><rect x="1459" y="409" width="3" height="4" fill="#c2a267" opacity="0.75"/><rect x="1450" y="435" width="3" height="4" fill="#e8cf96" opacity="0.64"/><rect x="1516.5" y="307" width="3" height="4" fill="#c2a267" opacity="0.51"/><rect x="1534.5" y="307" width="3" height="4" fill="#c2a267" opacity="0.88"/><rect x="1525.5" y="320" width="3" height="4" fill="#e8cf96" opacity="0.68"/><rect x="1498.5" y="333" width="3" height="4" fill="#b9924a" opacity="0.48"/><rect x="1516.5" y="333" width="3" height="4" fill="#e8cf96" opacity="0.85"/><rect x="1525.5" y="333" width="3" height="4" fill="#e8cf96" opacity="0.65"/><rect x="1534.5" y="333" width="3" height="4" fill="#c2a267" opacity="0.68"/><rect x="1489.5" y="346" width="3" height="4" fill="#d4b87a" opacity="0.64"/><rect x="1498.5" y="346" width="3" height="4" fill="#b9924a" opacity="0.65"/><rect x="1507.5" y="346" width="3" height="4" fill="#b9924a" opacity="0.67"/><rect x="1552.5" y="346" width="3" height="4" fill="#b9924a" opacity="0.57"/><rect x="1480.5" y="359" width="3" height="4" fill="#e8cf96" opacity="0.55"/><rect x="1534.5" y="359" width="3" height="4" fill="#c2a267" opacity="0.90"/><rect x="1489.5" y="372" width="3" height="4" fill="#c2a267" opacity="0.74"/><rect x="1525.5" y="372" width="3" height="4" fill="#e8cf96" opacity="0.72"/><rect x="1552.5" y="372" width="3" height="4" fill="#c2a267" opacity="0.65"/><rect x="1480.5" y="385" width="3" height="4" fill="#c2a267" opacity="0.66"/><rect x="1543.5" y="385" width="3" height="4" fill="#c2a267" opacity="0.68"/><rect x="1489.5" y="398" width="3" height="4" fill="#d4b87a" opacity="0.77"/><rect x="1516.5" y="398" width="3" height="4" fill="#e8cf96" opacity="0.56"/><rect x="1480.5" y="411" width="3" height="4" fill="#d4b87a" opacity="0.62"/><rect x="1552.5" y="411" width="3" height="4" fill="#c2a267" opacity="0.84"/><rect x="1498.5" y="424" width="3" height="4" fill="#d4b87a" opacity="0.68"/><rect x="1516.5" y="424" width="3" height="4" fill="#b9924a" opacity="0.58"/><rect x="1543.5" y="424" width="3" height="4" fill="#b9924a" opacity="0.50"/><rect x="1480.5" y="437" width="3" height="4" fill="#b9924a" opacity="0.58"/><rect x="1507.5" y="437" width="3" height="4" fill="#d4b87a" opacity="0.70"/><rect x="1525.5" y="437" width="3" height="4" fill="#e8cf96" opacity="0.85"/><rect x="1507.5" y="450" width="3" height="4" fill="#d4b87a" opacity="0.58"/><rect x="1534.5" y="450" width="3" height="4" fill="#b9924a" opacity="0.65"/><rect x="160" y="271" width="3" height="4" fill="#c2a267" opacity="0.79"/><rect x="133" y="284" width="3" height="4" fill="#e8cf96" opacity="0.76"/><rect x="160" y="284" width="3" height="4" fill="#e8cf96" opacity="0.54"/><rect x="115" y="310" width="3" height="4" fill="#e8cf96" opacity="0.74"/><rect x="133" y="310" width="3" height="4" fill="#d4b87a" opacity="0.54"/><rect x="151" y="310" width="3" height="4" fill="#e8cf96" opacity="0.69"/><rect x="178" y="310" width="3" height="4" fill="#d4b87a" opacity="0.83"/><rect x="115" y="323" width="3" height="4" fill="#b9924a" opacity="0.56"/><rect x="133" y="323" width="3" height="4" fill="#c2a267" opacity="0.70"/><rect x="151" y="323" width="3" height="4" fill="#e8cf96" opacity="0.59"/><rect x="160" y="323" width="3" height="4" fill="#e8cf96" opacity="0.46"/><rect x="124" y="336" width="3" height="4" fill="#c2a267" opacity="0.51"/><rect x="151" y="336" width="3" height="4" fill="#c2a267" opacity="0.48"/><rect x="160" y="336" width="3" height="4" fill="#e8cf96" opacity="0.51"/><rect x="115" y="349" width="3" height="4" fill="#b9924a" opacity="0.53"/><rect x="133" y="349" width="3" height="4" fill="#d4b87a" opacity="0.77"/><rect x="142" y="349" width="3" height="4" fill="#d4b87a" opacity="0.84"/><rect x="178" y="349" width="3" height="4" fill="#c2a267" opacity="0.85"/><rect x="178" y="362" width="3" height="4" fill="#c2a267" opacity="0.64"/><rect x="133" y="375" width="3" height="4" fill="#b9924a" opacity="0.53"/><rect x="142" y="375" width="3" height="4" fill="#d4b87a" opacity="0.67"/><rect x="160" y="375" width="3" height="4" fill="#c2a267" opacity="0.72"/><rect x="115" y="388" width="3" height="4" fill="#e8cf96" opacity="0.79"/><rect x="142" y="388" width="3" height="4" fill="#b9924a" opacity="0.86"/><rect x="160" y="388" width="3" height="4" fill="#d4b87a" opacity="0.89"/><rect x="124" y="401" width="3" height="4" fill="#c2a267" opacity="0.49"/><rect x="151" y="401" width="3" height="4" fill="#c2a267" opacity="0.78"/><rect x="169" y="401" width="3" height="4" fill="#c2a267" opacity="0.45"/><rect x="115" y="414" width="3" height="4" fill="#b9924a" opacity="0.54"/><rect x="178" y="427" width="3" height="4" fill="#d4b87a" opacity="0.45"/><rect x="124" y="440" width="3" height="4" fill="#d4b87a" opacity="0.53"/><rect x="142" y="440" width="3" height="4" fill="#b9924a" opacity="0.61"/><rect x="160" y="440" width="3" height="4" fill="#c2a267" opacity="0.78"/><rect x="178" y="440" width="3" height="4" fill="#c2a267" opacity="0.61"/><rect x="151" y="453" width="3" height="4" fill="#d4b87a" opacity="0.63"/><rect x="133" y="479" width="3" height="4" fill="#c2a267" opacity="0.87"/><rect x="151" y="479" width="3" height="4" fill="#b9924a" opacity="0.85"/><rect x="178" y="479" width="3" height="4" fill="#c2a267" opacity="0.70"/><rect x="151" y="492" width="3" height="4" fill="#d4b87a" opacity="0.73"/><rect x="124" y="505" width="3" height="4" fill="#c2a267" opacity="0.48"/><rect x="133" y="505" width="3" height="4" fill="#d4b87a" opacity="0.87"/><rect x="178" y="505" width="3" height="4" fill="#d4b87a" opacity="0.56"/><rect x="382" y="216" width="3" height="4" fill="#e8cf96" opacity="0.64"/><rect x="400" y="216" width="3" height="4" fill="#d4b87a" opacity="0.69"/><rect x="382" y="229" width="3" height="4" fill="#d4b87a" opacity="0.66"/><rect x="373" y="242" width="3" height="4" fill="#c2a267" opacity="0.51"/><rect x="382" y="242" width="3" height="4" fill="#c2a267" opacity="0.60"/><rect x="400" y="242" width="3" height="4" fill="#d4b87a" opacity="0.88"/><rect x="409" y="255" width="3" height="4" fill="#e8cf96" opacity="0.87"/><rect x="418" y="255" width="3" height="4" fill="#c2a267" opacity="0.58"/><rect x="427" y="255" width="3" height="4" fill="#c2a267" opacity="0.51"/><rect x="445" y="255" width="3" height="4" fill="#c2a267" opacity="0.55"/><rect x="391" y="281" width="3" height="4" fill="#e8cf96" opacity="0.70"/><rect x="409" y="281" width="3" height="4" fill="#b9924a" opacity="0.79"/><rect x="373" y="294" width="3" height="4" fill="#e8cf96" opacity="0.56"/><rect x="382" y="294" width="3" height="4" fill="#b9924a" opacity="0.68"/><rect x="427" y="294" width="3" height="4" fill="#b9924a" opacity="0.82"/><rect x="382" y="307" width="3" height="4" fill="#c2a267" opacity="0.82"/><rect x="418" y="307" width="3" height="4" fill="#d4b87a" opacity="0.72"/><rect x="409" y="320" width="3" height="4" fill="#d4b87a" opacity="0.54"/><rect x="409" y="333" width="3" height="4" fill="#d4b87a" opacity="0.50"/><rect x="427" y="333" width="3" height="4" fill="#d4b87a" opacity="0.59"/><rect x="382" y="346" width="3" height="4" fill="#c2a267" opacity="0.80"/><rect x="409" y="346" width="3" height="4" fill="#b9924a" opacity="0.90"/><rect x="418" y="346" width="3" height="4" fill="#c2a267" opacity="0.60"/><rect x="400" y="359" width="3" height="4" fill="#e8cf96" opacity="0.77"/><rect x="418" y="359" width="3" height="4" fill="#b9924a" opacity="0.84"/><rect x="418" y="372" width="3" height="4" fill="#e8cf96" opacity="0.51"/><rect x="436" y="372" width="3" height="4" fill="#d4b87a" opacity="0.57"/><rect x="382" y="385" width="3" height="4" fill="#e8cf96" opacity="0.86"/><rect x="445" y="385" width="3" height="4" fill="#c2a267" opacity="0.59"/><rect x="373" y="398" width="3" height="4" fill="#d4b87a" opacity="0.55"/><rect x="382" y="398" width="3" height="4" fill="#e8cf96" opacity="0.60"/><rect x="382" y="411" width="3" height="4" fill="#c2a267" opacity="0.56"/><rect x="391" y="411" width="3" height="4" fill="#b9924a" opacity="0.76"/><rect x="400" y="411" width="3" height="4" fill="#d4b87a" opacity="0.69"/><rect x="400" y="424" width="3" height="4" fill="#d4b87a" opacity="0.60"/><rect x="436" y="424" width="3" height="4" fill="#d4b87a" opacity="0.76"/><rect x="373" y="437" width="3" height="4" fill="#d4b87a" opacity="0.85"/><rect x="418" y="437" width="3" height="4" fill="#d4b87a" opacity="0.81"/><rect x="427" y="437" width="3" height="4" fill="#b9924a" opacity="0.62"/><rect x="382" y="450" width="3" height="4" fill="#c2a267" opacity="0.89"/><rect x="436" y="450" width="3" height="4" fill="#d4b87a" opacity="0.51"/><rect x="445" y="450" width="3" height="4" fill="#e8cf96" opacity="0.51"/><rect x="373" y="463" width="3" height="4" fill="#e8cf96" opacity="0.74"/><rect x="409" y="463" width="3" height="4" fill="#d4b87a" opacity="0.62"/><rect x="436" y="463" width="3" height="4" fill="#d4b87a" opacity="0.67"/><rect x="418" y="476" width="3" height="4" fill="#d4b87a" opacity="0.80"/><rect x="445" y="476" width="3" height="4" fill="#b9924a" opacity="0.50"/><rect x="382" y="489" width="3" height="4" fill="#b9924a" opacity="0.78"/><rect x="409" y="489" width="3" height="4" fill="#b9924a" opacity="0.71"/><rect x="427" y="489" width="3" height="4" fill="#b9924a" opacity="0.73"/><rect x="445" y="489" width="3" height="4" fill="#d4b87a" opacity="0.54"/><rect x="409" y="502" width="3" height="4" fill="#b9924a" opacity="0.51"/><rect x="427" y="502" width="3" height="4" fill="#d4b87a" opacity="0.53"/><rect x="1558.5" y="222" width="3" height="4" fill="#c2a267" opacity="0.69"/><rect x="1576.5" y="222" width="3" height="4" fill="#e8cf96" opacity="0.74"/><rect x="1531.5" y="235" width="3" height="4" fill="#d4b87a" opacity="0.59"/><rect x="1540.5" y="235" width="3" height="4" fill="#d4b87a" opacity="0.46"/><rect x="1522.5" y="248" width="3" height="4" fill="#b9924a" opacity="0.70"/><rect x="1531.5" y="248" width="3" height="4" fill="#c2a267" opacity="0.86"/><rect x="1540.5" y="248" width="3" height="4" fill="#b9924a" opacity="0.46"/><rect x="1540.5" y="261" width="3" height="4" fill="#b9924a" opacity="0.82"/><rect x="1522.5" y="274" width="3" height="4" fill="#b9924a" opacity="0.81"/><rect x="1576.5" y="274" width="3" height="4" fill="#c2a267" opacity="0.47"/><rect x="1531.5" y="287" width="3" height="4" fill="#b9924a" opacity="0.68"/><rect x="1567.5" y="287" width="3" height="4" fill="#c2a267" opacity="0.85"/><rect x="1531.5" y="300" width="3" height="4" fill="#c2a267" opacity="0.81"/><rect x="1558.5" y="300" width="3" height="4" fill="#c2a267" opacity="0.84"/><rect x="1549.5" y="326" width="3" height="4" fill="#b9924a" opacity="0.77"/><rect x="1549.5" y="352" width="3" height="4" fill="#c2a267" opacity="0.81"/><rect x="1558.5" y="352" width="3" height="4" fill="#b9924a" opacity="0.82"/><rect x="1540.5" y="365" width="3" height="4" fill="#b9924a" opacity="0.57"/><rect x="1567.5" y="365" width="3" height="4" fill="#e8cf96" opacity="0.48"/><rect x="1549.5" y="378" width="3" height="4" fill="#d4b87a" opacity="0.81"/><rect x="1540.5" y="404" width="3" height="4" fill="#e8cf96" opacity="0.86"/><rect x="1549.5" y="404" width="3" height="4" fill="#c2a267" opacity="0.66"/><rect x="1558.5" y="417" width="3" height="4" fill="#b9924a" opacity="0.71"/><rect x="1522.5" y="430" width="3" height="4" fill="#b9924a" opacity="0.75"/><rect x="1540.5" y="430" width="3" height="4" fill="#d4b87a" opacity="0.72"/><rect x="1549.5" y="443" width="3" height="4" fill="#d4b87a" opacity="0.45"/><rect x="1576.5" y="443" width="3" height="4" fill="#b9924a" opacity="0.60"/><rect x="1576.5" y="469" width="3" height="4" fill="#d4b87a" opacity="0.77"/><rect x="1522.5" y="482" width="3" height="4" fill="#b9924a" opacity="0.62"/><rect x="1531.5" y="482" width="3" height="4" fill="#b9924a" opacity="0.47"/><rect x="1540.5" y="482" width="3" height="4" fill="#e8cf96" opacity="0.67"/><rect x="1549.5" y="495" width="3" height="4" fill="#d4b87a" opacity="0.48"/><rect x="1183" y="318" width="3" height="4" fill="#d4b87a" opacity="0.74"/><rect x="1219" y="318" width="3" height="4" fill="#c2a267" opacity="0.71"/><rect x="1174" y="331" width="3" height="4" fill="#c2a267" opacity="0.72"/><rect x="1183" y="331" width="3" height="4" fill="#c2a267" opacity="0.89"/><rect x="1165" y="344" width="3" height="4" fill="#c2a267" opacity="0.84"/><rect x="1219" y="344" width="3" height="4" fill="#c2a267" opacity="0.51"/><rect x="1183" y="357" width="3" height="4" fill="#b9924a" opacity="0.48"/><rect x="1192" y="357" width="3" height="4" fill="#c2a267" opacity="0.79"/><rect x="1219" y="370" width="3" height="4" fill="#b9924a" opacity="0.80"/><rect x="1201" y="383" width="3" height="4" fill="#c2a267" opacity="0.75"/><rect x="1210" y="383" width="3" height="4" fill="#c2a267" opacity="0.72"/><rect x="1183" y="396" width="3" height="4" fill="#d4b87a" opacity="0.87"/><rect x="1219" y="396" width="3" height="4" fill="#b9924a" opacity="0.55"/><rect x="1174" y="409" width="3" height="4" fill="#b9924a" opacity="0.61"/><rect x="1174" y="422" width="3" height="4" fill="#b9924a" opacity="0.77"/><rect x="1183" y="422" width="3" height="4" fill="#b9924a" opacity="0.60"/><rect x="1210" y="422" width="3" height="4" fill="#b9924a" opacity="0.79"/><rect x="1201" y="435" width="3" height="4" fill="#b9924a" opacity="0.72"/><rect x="1201" y="448" width="3" height="4" fill="#b9924a" opacity="0.56"/><rect x="1219" y="448" width="3" height="4" fill="#d4b87a" opacity="0.73"/><rect x="1183" y="461" width="3" height="4" fill="#e8cf96" opacity="0.78"/><rect x="1210" y="474" width="3" height="4" fill="#b9924a" opacity="0.87"/><rect x="1219" y="474" width="3" height="4" fill="#e8cf96" opacity="0.46"/><rect x="1165" y="487" width="3" height="4" fill="#b9924a" opacity="0.78"/><rect x="1174" y="487" width="3" height="4" fill="#c2a267" opacity="0.56"/><rect x="1183" y="500" width="3" height="4" fill="#e8cf96" opacity="0.65"/><rect x="1210" y="500" width="3" height="4" fill="#e8cf96" opacity="0.46"/></g></svg>